<?xml version="1.0" standalone="no"?>
<!DOCTYPE svg PUBLIC "-//W3C//DTD SVG 20010904//EN"
 "http://www.w3.org/TR/2001/REC-SVG-20010904/DTD/svg10.dtd">
<svg version="1.0" xmlns="http://www.w3.org/2000/svg"
 width="1280.000000pt" height="640.000000pt" viewBox="0 0 1280.000000 640.000000"
 preserveAspectRatio="xMidYMid meet">
<metadata>
Created by potrace 1.15, written by Peter Selinger 2001-2017
</metadata>
<g transform="translate(0.000000,640.000000) scale(0.100000,-0.100000)"
fill="#000000" stroke="none">
<path d="M10787 6069 c-97 -23 -190 -101 -235 -197 -23 -49 -27 -70 -27 -147
0 -77 4 -98 27 -147 92 -197 337 -267 517 -147 68 46 123 119 145 198 75 259
-162 503 -427 440z"/>
<path d="M1907 5861 c-86 -35 -150 -93 -194 -176 -35 -66 -43 -188 -19 -267
51 -160 228 -270 388 -240 81 15 144 47 198 102 172 171 120 466 -100 569 -74
35 -202 40 -273 12z"/>
<path d="M6497 5761 c-23 -21 -184 -118 -357 -216 -173 -98 -409 -232 -525
-297 l-210 -120 -120 36 c-66 20 -124 36 -128 36 -5 0 -19 13 -32 29 -54 63
-192 94 -263 57 -38 -20 -72 -81 -72 -132 0 -71 58 -127 160 -154 34 -9 57 -9
100 0 45 9 67 8 119 -4 73 -17 78 -20 61 -41 -21 -25 10 -267 50 -397 10 -34
16 -66 13 -72 -21 -36 -128 -156 -143 -161 -46 -15 -207 66 -440 219 -210 139
-268 172 -342 200 -213 80 -447 48 -627 -86 -47 -35 -56 -39 -78 -29 -13 6
-50 11 -81 11 -168 0 -360 -106 -567 -314 -120 -122 -203 -230 -263 -347 -62
-122 -75 -176 -70 -285 2 -52 2 -94 0 -94 -3 0 -44 29 -93 66 -161 119 -312
298 -391 463 -25 53 -42 127 -99 445 -74 404 -76 412 -148 489 -90 98 -233 92
-439 -19 -462 -248 -703 -464 -897 -803 l-66 -116 3 -157 4 -156 -101 -4
c-120 -4 -185 -29 -264 -103 -68 -64 -104 -123 -140 -230 -58 -174 -65 -369
-21 -540 25 -99 68 -163 169 -256 104 -95 160 -114 331 -114 186 0 203 7 340
131 63 57 117 104 121 104 3 0 25 -33 49 -72 37 -62 43 -80 42 -123 -1 -27
-49 -448 -106 -935 -58 -487 -101 -889 -97 -893 14 -14 295 -187 298 -183 4 3
14 45 198 771 141 558 205 809 209 812 1 1 78 -96 172 -215 l171 -217 66 -268
67 -268 -27 -24 c-48 -41 -129 -75 -215 -89 -70 -12 -76 -14 -38 -15 85 -2
197 38 257 92 13 11 25 19 26 16 2 -2 34 -123 72 -269 37 -146 68 -266 69
-267 1 -1 76 18 166 41 114 30 166 48 168 58 2 8 -16 134 -38 279 -23 145 -61
388 -85 539 l-43 275 33 87 c47 121 136 295 202 395 141 211 355 403 573 513
l65 33 175 -7 c96 -4 175 -8 177 -9 1 -1 -3 -34 -8 -72 -17 -133 -23 -406 -10
-509 14 -107 54 -283 96 -414 l26 -82 -24 -68 c-14 -37 -28 -92 -32 -122 -4
-30 -15 -74 -26 -96 -42 -90 -51 -172 -46 -439 5 -264 11 -311 63 -472 42
-131 77 -182 153 -221 68 -34 140 -43 159 -19 5 6 13 37 17 67 3 30 17 120 30
200 63 380 74 634 36 783 -16 60 -18 84 -10 105 15 39 15 129 1 182 -12 41
-11 50 8 95 28 66 67 216 82 319 6 47 15 83 20 80 4 -3 8 -16 8 -30 0 -40 40
-223 65 -299 20 -59 21 -72 10 -85 -31 -35 -48 -119 -42 -205 4 -58 2 -96 -9
-131 -41 -137 -37 -325 16 -674 17 -107 34 -239 39 -293 5 -54 15 -105 22
-113 25 -30 131 -8 196 42 68 51 138 252 163 464 16 139 8 484 -13 558 l-15
54 140 119 c77 65 142 119 146 119 4 0 26 -66 50 -148 80 -272 84 -282 97
-282 8 0 16 4 20 9 3 5 -20 94 -50 197 -30 103 -53 189 -51 191 2 3 114 -88
247 -201 219 -186 245 -205 259 -191 13 14 12 18 -15 40 -17 13 -140 117 -275
232 l-245 208 -3 704 -2 703 217 -8 c264 -11 376 -8 454 10 l59 13 0 -133 c0
-114 -3 -138 -20 -166 -55 -94 -46 -336 26 -683 31 -150 92 -387 102 -396 6
-6 303 -59 331 -59 8 0 11 140 11 474 l0 475 22 15 c17 12 49 16 130 16 l108
0 0 -545 0 -545 -275 -137 c-151 -76 -275 -140 -275 -143 1 -36 26 -27 288
104 l272 136 65 -130 c36 -72 70 -130 75 -130 26 0 18 35 -29 129 -28 55 -51
103 -51 106 0 3 111 -51 248 -119 224 -113 248 -123 260 -108 11 15 -16 31
-263 154 l-275 138 0 545 0 545 183 0 c163 0 186 -2 199 -17 8 -10 27 -79 42
-153 72 -363 164 -802 170 -807 3 -3 82 7 176 22 169 28 170 28 170 54 0 47
-30 481 -46 671 -25 306 -37 370 -78 446 l-37 66 1 191 2 192 -28 22 c-29 23
-125 63 -151 63 -18 0 -18 2 21 181 29 132 56 327 56 400 l0 49 138 0 138 0
98 -240 c54 -132 102 -240 105 -240 3 0 56 13 116 29 l110 28 -2 74 c-5 147
-46 335 -93 428 -15 31 -48 75 -73 98 -90 83 -301 170 -552 228 -78 18 -131
36 -153 52 -53 39 -154 82 -233 99 -101 22 -289 14 -379 -15 -36 -11 -66 -21
-67 -21 -1 0 -22 29 -47 64 -49 69 -113 130 -182 173 -30 19 -44 35 -44 50 0
38 -40 72 -110 92 -124 37 -305 93 -318 100 -16 9 954 581 1017 599 74 22 98
53 65 86 -24 24 -40 20 -87 -23z m-907 -861 c281 -65 261 -63 302 -44 l37 17
64 -47 c67 -47 148 -131 180 -185 l18 -30 -33 -17 c-18 -9 -47 -27 -64 -40
-31 -23 -34 -23 -165 -14 -74 5 -142 9 -152 10 -17 0 -17 2 3 35 27 44 22 72
-26 125 -59 65 -199 105 -223 63 -8 -15 -10 -16 -15 -3 -7 20 -36 136 -36 144
0 9 19 7 110 -14z m-4506 -725 c-50 -156 -83 -362 -84 -515 l-1 -75 -37 70
c-23 44 -50 78 -72 93 -40 27 -48 57 -49 203 l-1 86 132 111 c72 62 133 111
134 109 2 -2 -8 -39 -22 -82z m4686 0 c41 -13 94 -29 118 -35 l42 -11 0 -82
c0 -93 19 -238 50 -383 12 -55 23 -110 26 -124 5 -25 3 -25 -103 -46 -126 -25
-211 -55 -253 -91 -29 -24 -30 -27 -30 -118 l0 -93 -52 -14 c-40 -10 -126 -12
-358 -10 -168 2 -309 7 -313 11 -9 9 -5 336 4 345 3 4 51 -1 105 -10 136 -23
357 -23 444 -1 130 35 194 97 194 186 -1 59 -30 115 -91 175 -52 51 -172 136
-194 136 -7 0 23 37 67 83 44 45 93 99 108 119 l27 37 67 -26 c37 -13 101 -35
142 -48z m-2149 -7 c0 -2 4 -48 8 -103 5 -55 16 -163 26 -240 16 -124 17 -155
6 -275 -7 -74 -15 -194 -18 -267 l-6 -131 -30 -6 c-38 -8 -122 -7 -171 1 -31
5 -44 15 -70 51 -17 25 -85 114 -151 196 -206 261 -220 299 -145 414 81 126
266 284 395 337 48 20 151 35 156 23z m-1511 -547 l75 -90 297 -172 c163 -96
295 -175 293 -177 -2 -3 -189 4 -416 14 l-411 18 5 36 c28 184 37 262 43 368
8 142 -2 142 114 3z m2722 -71 c17 0 18 -14 18 -190 l0 -190 -100 0 -100 0 0
88 c-1 48 -7 143 -14 212 -7 69 -12 128 -10 131 2 4 45 -6 96 -22 51 -16 100
-29 110 -29z m-1945 -378 c-38 -2 -72 0 -75 3 -5 5 1 28 29 103 8 22 12 20 63
-40 l53 -63 -70 -3z m1963 -715 l0 -704 -117 -99 c-65 -54 -129 -109 -143
-121 l-26 -22 4 61 c3 33 -1 85 -7 115 -12 50 -11 60 18 146 95 291 106 358
105 632 0 236 -17 405 -49 496 -13 36 -13 48 0 99 8 32 15 67 15 79 0 20 5 21
100 21 l100 0 0 -703z m-2590 463 c402 -17 894 -40 925 -43 27 -2 24 -6 -45
-43 -224 -124 -414 -301 -553 -514 -60 -93 -151 -270 -188 -367 -13 -35 -26
-63 -30 -63 -3 0 -13 51 -22 113 l-17 114 -195 406 c-107 223 -195 407 -195
409 0 2 19 2 43 1 23 -1 148 -7 277 -13z"/>
<path d="M4218 5595 c-174 -64 -292 -280 -259 -477 47 -283 325 -385 529 -194
83 78 142 216 142 331 0 154 -98 307 -220 344 -50 15 -146 13 -192 -4z"/>
<path d="M6390 5445 c-225 -63 -330 -317 -219 -526 127 -237 468 -253 618 -28
50 75 65 131 59 226 -6 98 -31 156 -98 227 -91 97 -232 136 -360 101z"/>
<path d="M11025 5311 c-44 -20 -110 -88 -138 -143 -9 -18 -46 -195 -81 -393
-35 -198 -74 -385 -86 -415 -26 -66 -91 -180 -102 -180 -5 0 -172 84 -371 187
l-362 187 -187 164 c-103 90 -190 163 -195 163 -7 -1 -172 -308 -173 -322 0
-5 325 -176 607 -319 100 -50 102 -52 83 -68 -20 -17 -20 -18 29 -152 33 -91
55 -137 67 -142 11 -4 148 -42 307 -83 l287 -76 28 32 c15 18 30 37 34 43 5 7
29 0 72 -21 70 -35 69 -33 81 -148 3 -33 22 -141 42 -240 l36 -180 -215 -450
-216 -450 -106 -684 c-59 -376 -105 -684 -104 -686 15 -10 333 -83 339 -78 3
5 66 244 138 533 72 289 135 534 140 545 9 22 328 428 339 433 4 1 37 -116 73
-260 294 -1167 334 -1318 348 -1313 47 18 291 181 291 194 0 9 -43 386 -96
839 -53 452 -95 824 -92 827 2 3 36 -11 74 -30 38 -19 101 -42 141 -51 69 -15
77 -15 165 4 154 33 204 57 282 131 163 157 276 390 292 605 11 138 -35 268
-127 357 -44 43 -175 116 -293 163 l-39 16 7 78 c3 42 7 147 8 232 l1 155 -43
83 c-173 333 -388 538 -836 797 -220 127 -351 161 -449 116z m919 -975 l128
-109 -6 -71 c-3 -39 -9 -126 -12 -194 l-7 -123 -41 -24 c-22 -13 -53 -28 -67
-34 l-26 -9 -12 155 c-13 174 -37 304 -80 440 -16 51 -24 90 -17 86 6 -4 69
-56 140 -117z m-1574 -321 c51 -27 60 -35 39 -35 -21 0 -109 53 -109 66 0 7 4
5 70 -31z"/>
<path d="M8990 3935 c-25 -13 -116 -42 -202 -65 -299 -76 -463 -119 -953 -246
-93 -24 -191 -49 -217 -55 -39 -9 -48 -15 -48 -32 0 -12 4 -27 8 -34 7 -12 16
-10 412 100 91 25 248 69 350 97 102 28 275 77 385 108 110 30 232 58 270 61
83 7 95 13 95 51 0 46 -33 51 -100 15z"/>
<path d="M7960 3514 c-234 -27 -413 -78 -482 -135 l-38 -30 0 -819 0 -818 32
-28 c41 -34 103 -61 193 -84 62 -16 70 -20 73 -44 l3 -26 282 -2 282 -3 3
-275 2 -275 -275 -70 c-151 -38 -275 -73 -275 -77 0 -14 29 -9 296 59 l265 66
69 -68 c42 -42 72 -65 80 -60 8 5 -3 23 -36 56 -26 27 -46 51 -43 53 3 3 110
-22 239 -54 129 -33 243 -60 253 -60 56 0 -14 23 -258 85 l-275 69 0 278 0
278 281 0 c266 0 281 1 286 19 3 14 29 25 106 45 115 30 222 78 237 106 15 27
14 1633 0 1660 -13 24 -133 81 -217 104 -34 9 -122 26 -195 38 -178 27 -696
35 -888 12z m-110 -1954 c21 -7 19 -8 -17 -9 -23 -1 -45 4 -48 9 -7 12 29 12
65 0z m1017 -6 c-3 -3 -12 -4 -19 -1 -8 3 -5 6 6 6 11 1 17 -2 13 -5z"/>
</g>
</svg>
